grf
version=1
nRows=53
nColumns=19
inDegrees=yes
endheader
time	ground_force_1_vx	ground_force_1_vy	ground_force_1_vz	ground_force_1_px	ground_force_1_py	ground_force_1_pz	ground_moment_1_mx	ground_moment_1_my	ground_moment_1_mz	ground_force_2_vx	ground_force_2_vy	ground_force_2_vz	ground_force_2_px	ground_force_2_py	ground_force_2_pz	ground_moment_2_mx	ground_moment_2_my	ground_moment_2_mz
4.912000	22.588415	1362.664795	-505.996155	0.171510	0.000000	-0.724460	0.000000	5.125011	0.000000	25.437075	1282.309326	505.523102	0.169577	0.000000	-1.562575	0.000000	-9.060383	-0.000000
4.913000	22.263794	1365.062256	-506.840546	0.171872	0.000000	-0.724575	0.000000	5.018143	0.000000	25.193016	1285.649048	504.437622	0.169008	0.000000	-1.562134	0.000000	-9.665866	-0.000000
4.914000	23.919535	1365.722534	-506.838440	0.171212	0.000000	-0.724855	0.000000	5.036003	0.000000	27.246130	1281.984619	505.722931	0.169399	0.000000	-1.561982	0.000000	-9.185352	-0.000000
4.915000	24.730513	1355.846069	-506.916901	0.169586	0.000000	-0.722675	0.000000	5.465201	0.000000	27.086138	1276.249512	506.446472	0.168715	0.000000	-1.562443	0.000000	-9.406783	-0.000000
4.916000	24.406275	1364.460571	-507.477600	0.171258	0.000000	-0.724223	0.000000	4.633331	0.000000	27.811415	1281.504150	506.083252	0.168617	0.000000	-1.562408	0.000000	-9.181466	-0.000000
4.917000	24.121519	1367.508789	-507.598083	0.171016	0.000000	-0.724780	0.000000	4.887140	0.000000	27.690351	1270.669067	505.157959	0.167684	0.000000	-1.559139	0.000000	-9.726070	0.000000
4.918000	24.162905	1366.239624	-508.079834	0.170794	0.000000	-0.724192	0.000000	4.883940	0.000000	28.052713	1284.690918	506.564270	0.169091	0.000000	-1.563973	0.000000	-8.783593	-0.000000
4.919000	23.555428	1370.255737	-505.938416	0.170395	0.000000	-0.724759	0.000000	4.930084	0.000000	30.348644	1277.205811	507.085846	0.168502	0.000000	-1.561838	0.000000	-8.684817	-0.000000
4.920000	24.568775	1374.121948	-507.106750	0.169924	0.000000	-0.724647	0.000000	4.901624	0.000000	30.267473	1284.217163	508.572723	0.168522	0.000000	-1.561952	0.000000	-8.710250	-0.000000
4.921000	24.125320	1367.222534	-508.838989	0.170167	0.000000	-0.724497	0.000000	4.862697	0.000000	29.138973	1283.252686	507.767944	0.168099	0.000000	-1.561419	0.000000	-9.123929	-0.000000
4.922000	22.914936	1375.392944	-510.694519	0.170202	0.000000	-0.725047	0.000000	5.144336	0.000000	30.831932	1287.078491	508.531830	0.168376	0.000000	-1.561664	0.000000	-8.576807	-0.000000
4.923000	23.562656	1375.220459	-510.771606	0.170403	0.000000	-0.725749	0.000000	4.756146	0.000000	28.615931	1278.159912	509.295532	0.168670	0.000000	-1.562472	0.000000	-8.817749	-0.000000
4.924000	21.985886	1360.182495	-510.812683	0.169599	0.000000	-0.723414	0.000000	5.450105	0.000000	29.623091	1269.881470	510.141113	0.168623	0.000000	-1.563067	0.000000	-8.772173	-0.000000
4.925000	22.153332	1367.856567	-512.260742	0.170364	0.000000	-0.724381	0.000000	4.761713	0.000000	29.783358	1282.292725	509.134644	0.167831	0.000000	-1.561349	0.000000	-9.166870	-0.000000
4.926000	21.832895	1373.943970	-512.460632	0.170371	0.000000	-0.725486	0.000000	4.658954	0.000000	30.630390	1277.671631	511.021973	0.167821	0.000000	-1.561352	0.000000	-8.718144	-0.000000
4.927000	20.464575	1370.112183	-512.258179	0.170296	0.000000	-0.723625	0.000000	4.602305	0.000000	30.268440	1280.380005	509.616028	0.167591	0.000000	-1.561642	0.000000	-8.911687	-0.000000
4.928000	20.140715	1380.833374	-514.188477	0.170417	0.000000	-0.726585	0.000000	4.602451	0.000000	31.995636	1271.283691	509.936157	0.166987	0.000000	-1.562857	0.000000	-9.336277	-0.000000
4.929000	20.220060	1374.594238	-514.147827	0.170384	0.000000	-0.724890	0.000000	4.618787	0.000000	32.036495	1275.123657	509.694885	0.166999	0.000000	-1.560435	0.000000	-9.325433	0.000000
4.930000	20.465715	1372.683105	-514.348633	0.170015	0.000000	-0.724857	0.000000	4.611739	0.000000	29.060013	1280.851807	509.775085	0.167155	0.000000	-1.561248	0.000000	-9.182200	-0.000000
4.931000	19.454271	1376.844604	-514.588257	0.170265	0.000000	-0.724618	0.000000	4.621707	0.000000	31.114643	1268.438843	509.613495	0.167512	0.000000	-1.562660	-0.000000	-8.516260	-0.000000
4.932000	19.294815	1375.097046	-514.988953	0.169426	0.000000	-0.724733	0.000000	4.915273	0.000000	31.275326	1278.469360	509.974518	0.167162	0.000000	-1.561491	0.000000	-8.686750	-0.000000
4.933000	19.254190	1376.688843	-515.591919	0.170184	0.000000	-0.724468	0.000000	4.500536	0.000000	31.075575	1277.668457	510.014130	0.166609	0.000000	-1.561541	0.000000	-8.754416	-0.000000
4.934000	18.810734	1381.523438	-516.479004	0.169215	0.000000	-0.724299	0.000000	5.094157	0.000000	33.411678	1280.537842	509.852539	0.166891	0.000000	-1.561604	0.000000	-8.180134	-0.000000
4.935000	18.976278	1379.410400	-515.912720	0.170219	0.000000	-0.724795	0.000000	4.276805	0.000000	31.276293	1271.762207	508.965851	0.166116	0.000000	-1.560747	0.000000	-8.792116	0.000000
4.936000	17.969400	1382.950562	-514.865906	0.168983	0.000000	-0.726833	0.000000	4.965251	0.000000	28.745684	1278.139648	509.770874	0.166131	0.000000	-1.560464	-0.000000	-8.468563	-0.000000
4.937000	15.550911	1377.025757	-516.875793	0.169226	0.000000	-0.725071	0.000000	4.847336	0.000000	32.201733	1276.224365	510.373474	0.166090	0.000000	-1.560752	0.000000	-8.837787	-0.000000
4.938000	16.838362	1375.107788	-516.511719	0.169451	0.000000	-0.724505	0.000000	4.669969	0.000000	32.846535	1288.659668	510.614319	0.166472	0.000000	-1.560350	0.000000	-8.486317	-0.000000
4.939000	17.890434	1376.696411	-516.552124	0.169635	0.000000	-0.725246	0.000000	4.355287	0.000000	32.563957	1275.424805	509.526489	0.165827	0.000000	-1.560384	0.000000	-8.704859	-0.000000
4.940000	16.236593	1372.395142	-516.551208	0.168992	0.000000	-0.724050	0.000000	4.783038	0.000000	33.088936	1277.816040	509.929260	0.165507	0.000000	-1.560120	0.000000	-8.710035	0.000000
4.941000	16.480724	1389.396851	-520.022217	0.168878	0.000000	-0.725686	0.000000	5.146020	0.000000	30.025347	1278.124023	511.817505	0.165850	0.000000	-1.559391	0.000000	-9.214084	-0.000000
4.942000	14.338627	1387.941040	-518.359070	0.168262	0.000000	-0.727713	0.000000	5.341385	0.000000	33.168861	1280.681396	510.611359	0.165049	0.000000	-1.561002	0.000000	-8.859474	-0.000000
4.943000	15.914257	1385.373169	-517.877136	0.169033	0.000000	-0.725814	0.000000	4.706362	0.000000	34.134747	1269.695068	512.583496	0.165339	0.000000	-1.562258	0.000000	-8.840607	-0.000000
4.944000	15.231239	1374.648315	-517.834595	0.168812	0.000000	-0.724600	0.000000	4.656541	0.000000	33.893173	1277.645996	510.328827	0.164859	0.000000	-1.560736	0.000000	-8.834107	-0.000000
4.945000	14.544796	1379.757812	-518.882385	0.169181	0.000000	-0.725084	0.000000	4.618771	0.000000	35.018501	1280.354858	511.253052	0.164662	0.000000	-1.560541	0.000000	-9.026265	-0.000000
4.946000	14.706533	1373.381104	-518.155029	0.167898	0.000000	-0.723966	0.000000	5.116252	0.000000	34.617348	1282.562012	513.185059	0.163844	0.000000	-1.559060	-0.000000	-9.601278	-0.000000
4.947000	14.345852	1381.535156	-518.917908	0.169115	0.000000	-0.725123	0.000000	4.357782	0.000000	34.577728	1274.930176	511.130676	0.163985	0.000000	-1.559918	0.000000	-9.031029	-0.000000
4.948000	15.071018	1377.539551	-520.926392	0.168815	0.000000	-0.724930	0.000000	4.313289	0.000000	35.021122	1280.195557	511.089355	0.164075	0.000000	-1.560328	0.000000	-8.761473	-0.000000
4.949000	13.462751	1378.976318	-520.004883	0.168889	0.000000	-0.725032	0.000000	4.382175	0.000000	36.067627	1277.156372	511.089233	0.163744	0.000000	-1.559551	0.000000	-8.873831	-0.000000
4.950000	13.985174	1376.899048	-520.205750	0.168484	0.000000	-0.724629	0.000000	4.604470	0.000000	33.973240	1275.569336	511.128235	0.163890	0.000000	-1.560298	0.000000	-8.973556	-0.000000
4.951000	13.384163	1379.136108	-520.767151	0.168681	0.000000	-0.724734	0.000000	4.298412	0.000000	35.343727	1279.390625	511.530151	0.163781	0.000000	-1.559516	0.000000	-8.722918	-0.000000
4.952000	12.900085	1379.774902	-520.847961	0.168957	0.000000	-0.725012	0.000000	4.216952	0.000000	35.745987	1280.337158	512.012085	0.163255	0.000000	-1.559719	0.000000	-8.944539	-0.000000
4.953000	12.943375	1379.937866	-521.128174	0.168586	0.000000	-0.725069	0.000000	4.217291	0.000000	36.269028	1276.199585	511.327972	0.163605	0.000000	-1.559472	0.000000	-8.692959	-0.000000
4.954000	10.882143	1368.736328	-520.931030	0.168819	0.000000	-0.721780	0.000000	4.596240	0.000000	36.511707	1290.563965	510.924683	0.164258	0.000000	-1.557712	-0.000000	-8.148180	-0.000000
4.955000	12.097475	1384.740601	-522.374207	0.168665	0.000000	-0.725880	0.000000	4.142591	0.000000	38.518993	1276.030273	511.405640	0.162530	0.000000	-1.560052	-0.000000	-9.285107	-0.000000
4.956000	13.316988	1376.261719	-523.624023	0.168362	0.000000	-0.724286	0.000000	3.850147	0.000000	36.833073	1282.251831	510.923096	0.163142	0.000000	-1.559601	-0.000000	-8.556190	-0.000000
4.957000	11.859430	1382.356201	-523.257629	0.168311	0.000000	-0.725550	0.000000	4.088263	0.000000	36.632359	1272.842529	510.962708	0.162185	0.000000	-1.559066	0.000000	-8.964749	-0.000000
4.958000	11.170322	1384.904785	-523.743103	0.168567	0.000000	-0.725834	0.000000	4.267308	0.000000	36.833763	1278.583008	510.720398	0.162662	0.000000	-1.559149	0.000000	-8.580280	-0.000000
4.959000	11.011627	1382.193604	-524.343933	0.168264	0.000000	-0.725820	0.000000	4.206435	0.000000	37.115372	1279.216064	511.082214	0.162063	0.000000	-1.558718	0.000000	-8.907955	-0.000000
4.960000	10.607660	1375.308838	-524.585449	0.168078	0.000000	-0.724555	0.000000	4.351162	0.000000	36.470848	1271.084229	510.718475	0.162534	0.000000	-1.557900	0.000000	-8.620336	0.000000
4.961000	11.653259	1371.463501	-527.639832	0.168865	0.000000	-0.722384	0.000000	3.756619	0.000000	34.986885	1280.012451	510.597473	0.161633	0.000000	-1.558588	0.000000	-8.503030	-0.000000
4.962000	8.672108	1374.037842	-524.541992	0.168093	0.000000	-0.723950	0.000000	4.360210	0.000000	38.964046	1286.075439	510.557404	0.161755	0.000000	-1.557664	0.000000	-9.099471	-0.000000
4.963000	8.266998	1375.151245	-526.876465	0.168425	0.000000	-0.723981	0.000000	4.295318	0.000000	37.879715	1284.312622	510.798157	0.161468	0.000000	-1.559371	0.000000	-8.934431	-0.000000
4.964000	9.882113	1383.005371	-525.383118	0.168256	0.000000	-0.725574	0.000000	4.010096	0.000000	38.323383	1275.542236	509.913269	0.160754	0.000000	-1.558450	0.000000	-9.141554	-0.000000
